<svg width="215" height="115" viewBox="0 0 215 115" fill="none" xmlns="http://www.w3.org/2000/svg">
<path d="M117.424 47.536V70H111.952V56.528L106.928 70H102.512L97.456 56.496V70H91.984V47.536H98.448L104.752 63.088L110.992 47.536H117.424ZM129.487 70.256C127.738 70.256 126.159 69.8827 124.751 69.136C123.364 68.3893 122.266 67.3227 121.455 65.936C120.666 64.5493 120.271 62.928 120.271 61.072C120.271 59.2373 120.676 57.6267 121.487 56.24C122.298 54.832 123.407 53.7547 124.815 53.008C126.223 52.2613 127.802 51.888 129.551 51.888C131.3 51.888 132.879 52.2613 134.287 53.008C135.695 53.7547 136.804 54.832 137.615 56.24C138.426 57.6267 138.831 59.2373 138.831 61.072C138.831 62.9067 138.415 64.528 137.583 65.936C136.772 67.3227 135.652 68.3893 134.223 69.136C132.815 69.8827 131.236 70.256 129.487 70.256ZM129.487 65.52C130.532 65.52 131.418 65.136 132.143 64.368C132.89 63.6 133.263 62.5013 133.263 61.072C133.263 59.6427 132.9 58.544 132.175 57.776C131.471 57.008 130.596 56.624 129.551 56.624C128.484 56.624 127.599 57.008 126.895 57.776C126.191 58.5227 125.839 59.6213 125.839 61.072C125.839 62.5013 126.18 63.6 126.863 64.368C127.567 65.136 128.442 65.52 129.487 65.52ZM149.766 64.88L153.638 52.144H159.462L153.126 70H146.374L140.038 52.144H145.894L149.766 64.88ZM178.597 60.784C178.597 61.296 178.565 61.8293 178.501 62.384H166.117C166.203 63.4933 166.555 64.3467 167.173 64.944C167.813 65.52 168.592 65.808 169.509 65.808C170.875 65.808 171.824 65.232 172.357 64.08H178.181C177.883 65.2533 177.339 66.3093 176.549 67.248C175.781 68.1867 174.811 68.9227 173.637 69.456C172.464 69.9893 171.152 70.256 169.701 70.256C167.952 70.256 166.395 69.8827 165.029 69.136C163.664 68.3893 162.597 67.3227 161.829 65.936C161.061 64.5493 160.677 62.928 160.677 61.072C160.677 59.216 161.051 57.5947 161.797 56.208C162.565 54.8213 163.632 53.7547 164.997 53.008C166.363 52.2613 167.931 51.888 169.701 51.888C171.429 51.888 172.965 52.2507 174.309 52.976C175.653 53.7013 176.699 54.736 177.445 56.08C178.213 57.424 178.597 58.992 178.597 60.784ZM172.997 59.344C172.997 58.4053 172.677 57.6587 172.037 57.104C171.397 56.5493 170.597 56.272 169.637 56.272C168.72 56.272 167.941 56.5387 167.301 57.072C166.683 57.6053 166.299 58.3627 166.149 59.344H172.997ZM186.956 47.536V70H181.484V47.536H186.956ZM200.874 65.36V70H198.09C196.106 70 194.559 69.52 193.45 68.56C192.34 67.5787 191.786 65.9893 191.786 63.792V56.688H189.61V52.144H191.786V47.792H197.258V52.144H200.842V56.688H197.258V63.856C197.258 64.3893 197.386 64.7733 197.642 65.008C197.898 65.2427 198.324 65.36 198.922 65.36H200.874ZM211.122 46.736L210.482 62.064H205.842L205.202 46.736H211.122ZM208.242 70.256C207.282 70.256 206.492 69.9787 205.874 69.424C205.276 68.848 204.978 68.144 204.978 67.312C204.978 66.4587 205.276 65.744 205.874 65.168C206.492 64.592 207.282 64.304 208.242 64.304C209.18 64.304 209.948 64.592 210.546 65.168C211.164 65.744 211.474 66.4587 211.474 67.312C211.474 68.144 211.164 68.848 210.546 69.424C209.948 69.9787 209.18 70.256 208.242 70.256Z" fill="#1C1C1E"/>
<path d="M23.9347 34.4028C25.9103 33.5263 27.983 32.8782 30.111 32.4714C33.0895 37.6408 36.3987 43.2924 38.8325 47.2018C38.7036 47.012 38.5927 46.8582 38.5064 46.7507C38.0642 46.2014 35.2088 43.1437 30.0974 45.3585C30.0974 45.3585 25.8472 47.7942 26.8746 52.613C27.902 57.4318 32.6273 57.7387 32.9386 57.7387C33.2499 57.7387 44.9752 57.6488 44.9752 57.6488C44.9752 57.6488 41.9502 52.2561 39.9669 48.994C40.7153 50.1532 41.3283 51.0455 41.7517 51.5714C42.8385 52.9211 48.9876 59.5377 59.8865 57.5299C63.8132 64.3452 67.163 70.3125 67.163 70.3125H32.1445C31.2421 70.3125 17.5774 69.3095 14.6124 55.3783C11.6474 41.4471 21.5247 35.4519 23.9347 34.4028Z" fill="#0049FC"/>
<path d="M51.4917 43.2494C51.9339 43.7986 54.7893 46.8563 59.9007 44.6415C59.9007 44.6415 64.1509 42.2059 63.1235 37.387C62.0961 32.5682 57.3714 32.2613 57.0601 32.2613C56.7488 32.2613 45.0236 32.3512 45.0236 32.3512C45.0236 32.3512 48.0485 37.744 50.0318 41.0054C49.2835 39.8468 48.6705 38.9545 48.247 38.4287C47.1603 37.0789 41.0111 30.4623 30.1122 32.4702C26.1856 25.6549 22.8358 19.6875 22.8358 19.6875H57.8555C58.7579 19.6875 72.4226 20.6905 75.3876 34.6217C78.3526 48.5529 68.4747 54.5481 66.0646 55.5973C64.0895 56.4743 62.0174 57.123 59.8897 57.5305C56.9112 52.3611 53.602 46.7095 51.1681 42.8001C51.2932 42.9861 51.4053 43.1418 51.4917 43.2494Z" fill="#00CBFE"/>
<path opacity="0.5" d="M41.791 51.5701C41.3675 51.0443 40.7546 50.152 40.0062 48.9927C39.5602 48.2593 39.1683 47.636 38.8737 47.2038C36.4399 43.2962 33.1307 37.6427 30.1521 32.4733C41.0511 30.4654 47.2002 37.082 48.2869 38.4318C48.7104 38.9577 49.3234 39.8499 50.0717 41.0086C50.5177 41.7427 50.9096 42.366 51.2042 42.7982C53.6381 46.7057 56.9473 52.3592 59.9258 57.5286C49.0269 59.5365 42.8777 52.9199 41.791 51.5701Z" fill="#00CBFE"/>
<path opacity="0.5" d="M41.791 51.5701C41.3675 51.0443 40.7546 50.152 40.0062 48.9927C39.5602 48.2593 39.1683 47.636 38.8737 47.2038C36.4399 43.2962 33.1307 37.6427 30.1521 32.4733C41.0511 30.4654 47.2002 37.082 48.2869 38.4318C48.7104 38.9577 49.3234 39.8499 50.0717 41.0086C50.5177 41.7427 50.9096 42.366 51.2042 42.7982C53.6381 46.7057 56.9473 52.3592 59.9258 57.5286C49.0269 59.5365 42.8777 52.9199 41.791 51.5701Z" fill="#0049FC"/>
</svg>
